<?xml version="1.0" standalone="no"?><!DOCTYPE svg PUBLIC "-//W3C//DTD SVG 1.1//EN" "http://www.w3.org/Graphics/SVG/1.1/DTD/svg11.dtd"><svg t="1500445624173" class="icon" style="" viewBox="0 0 1026 1024" version="1.1" xmlns="http://www.w3.org/2000/svg" p-id="996" xmlns:xlink="http://www.w3.org/1999/xlink" width="200.390625" height="200"><defs><style type="text/css"></style></defs><path d="M960.686 327.461l-222.556-31.727c-24.8-3.529-46.24-18.829-57.332-40.866l-99.531-197.825c-27.932-55.529-108.638-55.529-136.567 0l-99.531 197.825c-11.092 22.037-32.531 37.337-57.335 40.866l-222.554 31.727c-62.457 8.898-87.395 84.19-42.198 127.422l161.039 153.99c17.948 17.147 26.137 41.881 21.901 66.124l-38.019 217.442c-10.669 61.004 54.625 107.536 110.489 78.723l199.060-102.646c22.185-11.454 48.686-11.454 70.868 0l199.062 102.646c55.865 28.813 121.155-17.719 110.489-78.723l-38.021-217.442c-4.236-24.243 3.955-48.977 21.903-66.124l161.042-153.99c45.194-43.232 20.253-118.524-42.205-127.422z" fill="#f4ea2a" p-id="997"></path></svg>